{
    "asset" : {
        "generator" : "Khronos glTF Blender I/O v3.3.27",
        "version" : "2.0"
    },
    "scene" : 0,
    "scenes" : [
        {
            "name" : "Scene",
            "nodes" : [
                0
            ]
        }
    ],
    "nodes" : [
        {
            "mesh" : 0,
            "name" : "TreeRed"
        }
    ],
    "meshes" : [
        {
            "name" : "Tree017_Tree_Lowpoly_SG_0",
            "primitives" : [
                {
                    "attributes" : {
                        "POSITION" : 0,
                        "NORMAL" : 1,
                        "TEXCOORD_0" : 2,
                        "TEXCOORD_1" : 3
                    },
                    "indices" : 4
                }
            ]
        }
    ],
    "accessors" : [
        {
            "bufferView" : 0,
            "componentType" : 5126,
            "count" : 445,
            "max" : [
                2.3905835151672363,
                6.762784481048584,
                2.454359292984009
            ],
            "min" : [
                -2.9526352882385254,
                -1.2333990184743016e-07,
                -3.1594038009643555
            ],
            "type" : "VEC3"
        },
        {
            "bufferView" : 1,
            "componentType" : 5126,
            "count" : 445,
            "type" : "VEC3"
        },
        {
            "bufferView" : 2,
            "componentType" : 5126,
            "count" : 445,
            "type" : "VEC2"
        },
        {
            "bufferView" : 3,
            "componentType" : 5126,
            "count" : 445,
            "type" : "VEC2"
        },
        {
            "bufferView" : 4,
            "componentType" : 5123,
            "count" : 2490,
            "type" : "SCALAR"
        }
    ],
    "bufferViews" : [
        {
            "buffer" : 0,
            "byteLength" : 5340,
            "byteOffset" : 0,
            "target" : 34962
        },
        {
            "buffer" : 0,
            "byteLength" : 5340,
            "byteOffset" : 5340,
            "target" : 34962
        },
        {
            "buffer" : 0,
            "byteLength" : 3560,
            "byteOffset" : 10680,
            "target" : 34962
        },
        {
            "buffer" : 0,
            "byteLength" : 3560,
            "byteOffset" : 14240,
            "target" : 34962
        },
        {
            "buffer" : 0,
            "byteLength" : 4980,
            "byteOffset" : 17800,
            "target" : 34963
        }
    ],
    "buffers" : [
        {
            "byteLength" : 22780,
            "uri" : "data:application/octet-stream;base64,"
        }
    ]
}
