{
    "asset" : {
        "generator" : "Khronos glTF Blender I/O v3.3.27",
        "version" : "2.0"
    },
    "scene" : 0,
    "scenes" : [
        {
            "name" : "Scene",
            "nodes" : [
                0
            ]
        }
    ],
    "nodes" : [
        {
            "mesh" : 0,
            "name" : "Rock.006-col"
        }
    ],
    "meshes" : [
        {
            "name" : "defaultMaterial.007",
            "primitives" : [
                {
                    "attributes" : {
                        "POSITION" : 0,
                        "NORMAL" : 1,
                        "TEXCOORD_0" : 2,
                        "TEXCOORD_1" : 3
                    },
                    "indices" : 4
                }
            ]
        }
    ],
    "accessors" : [
        {
            "bufferView" : 0,
            "componentType" : 5126,
            "count" : 248,
            "max" : [
                0.13689762353897095,
                0.17211434245109558,
                0.12553194165229797
            ],
            "min" : [
                -0.14878839254379272,
                -0.011753737926483154,
                -0.12848514318466187
            ],
            "type" : "VEC3"
        },
        {
            "bufferView" : 1,
            "componentType" : 5126,
            "count" : 248,
            "type" : "VEC3"
        },
        {
            "bufferView" : 2,
            "componentType" : 5126,
            "count" : 248,
            "type" : "VEC2"
        },
        {
            "bufferView" : 3,
            "componentType" : 5126,
            "count" : 248,
            "type" : "VEC2"
        },
        {
            "bufferView" : 4,
            "componentType" : 5123,
            "count" : 252,
            "type" : "SCALAR"
        }
    ],
    "bufferViews" : [
        {
            "buffer" : 0,
            "byteLength" : 2976,
            "byteOffset" : 0,
            "target" : 34962
        },
        {
            "buffer" : 0,
            "byteLength" : 2976,
            "byteOffset" : 2976,
            "target" : 34962
        },
        {
            "buffer" : 0,
            "byteLength" : 1984,
            "byteOffset" : 5952,
            "target" : 34962
        },
        {
            "buffer" : 0,
            "byteLength" : 1984,
            "byteOffset" : 7936,
            "target" : 34962
        },
        {
            "buffer" : 0,
            "byteLength" : 504,
            "byteOffset" : 9920,
            "target" : 34963
        }
    ],
    "buffers" : [
        {
            "byteLength" : 10424,
            "uri" : "data:application/octet-stream;base64,"
        }
    ]
}
