# Blender 3.3.0
# www.blender.org
o Grass1
v -5.557196 87.620941 20.256891
v -5.445079 87.395744 36.946915
v -5.407893 87.487404 22.268999
v -5.294376 87.205330 24.252268
v -5.209543 86.886627 26.240416
v -5.163190 86.600136 28.255966
v -5.155151 86.385834 30.322283
v -5.193074 86.323738 32.461685
v -5.286685 86.599289 34.680553
v -5.664341 88.590271 39.244610
v -5.933193 89.985779 41.582603
v -6.225834 91.441612 43.918003
v -3.522367 87.839592 20.080793
v -1.458313 87.901474 19.879007
v 0.633722 87.905243 19.670422
v 2.758733 87.800529 19.473412
v -3.414933 87.534378 36.992603
v -1.363446 87.542191 37.042877
v 0.713817 87.442024 37.093689
v 2.817235 87.275047 37.142242
v 4.939409 87.109894 37.189621
v 7.087679 87.016579 37.219963
v 9.251775 87.086761 37.212017
v -7.603079 87.319908 20.408020
v -13.312507 86.179443 36.587975
v -11.403024 86.597908 36.730568
v -9.446256 86.897858 36.831127
v -7.456735 87.167336 36.898235
v 6.930209 86.364952 21.193041
v 4.939230 87.151703 21.371241
v 2.846963 87.497688 21.541742
v 0.734595 87.594727 21.717844
v -1.342674 87.611656 21.908989
v -3.383742 87.578941 22.099432
v 7.028174 86.276199 23.288410
v 5.010183 86.927505 23.445917
v 2.922864 87.227486 23.600616
v 0.822929 87.303291 23.760313
v -1.245590 87.300179 23.929308
v -3.276776 87.271202 24.100760
v 7.126148 86.333000 25.395569
v 5.091883 86.885208 25.529217
v 3.002781 87.133591 25.672333
v 0.905244 87.126793 25.817331
v -1.163752 87.065147 25.966305
v -3.196173 86.973778 26.110182
v 9.269071 86.136879 27.430311
v 7.237886 86.610352 27.537455
v 5.175350 87.004875 27.658411
v 3.068484 87.133331 27.786306
v 0.966031 87.037254 27.912992
v -1.104513 86.877342 28.035673
v -3.142949 86.716187 28.151514
v 9.362069 86.543495 29.666248
v 7.293146 86.771500 29.761633
v 5.198364 86.939873 29.863163
v 3.083261 86.980789 29.965990
v 0.981491 86.877525 30.066338
v -1.088263 86.705643 30.161428
v -3.129756 86.527901 30.247786
v 9.355377 86.576530 32.044304
v 7.262002 86.659378 32.104603
v 5.152702 86.721298 32.170094
v 3.038015 86.745987 32.237965
v 0.940125 86.708054 32.306309
v -1.126320 86.605591 32.368851
v -3.167156 86.469215 32.421345
v 9.305329 86.516129 34.575989
v 7.178759 86.534286 34.599236
v 5.054869 86.602020 34.619125
v 2.940224 86.698280 34.640202
v 0.844145 86.781685 34.660793
v -1.221417 86.796646 34.674870
v -3.261977 86.734077 34.681122
v 9.169183 88.556763 39.737511
v 6.998645 88.416992 39.744316
v 4.833243 88.454636 39.701984
v 2.689663 88.592979 39.624062
v 0.564056 88.736465 39.529312
v -1.542429 88.824471 39.427692
v -3.619576 88.790428 39.330265
v 6.906876 90.368042 42.079098
v 4.731487 90.312813 42.076199
v 2.561932 90.356339 42.022896
v 0.399527 90.407845 41.938000
v -1.748035 90.420647 41.822266
v -3.864463 90.296143 41.700600
v 6.829819 92.621002 44.259193
v 4.649893 92.436050 44.314739
v 2.461452 92.327759 44.307274
v 0.255764 92.278641 44.244064
v -1.947115 92.148796 44.158634
v -4.115289 91.868546 44.049770
v -7.422637 87.150055 22.402033
v -9.460984 86.757057 22.506901
v -11.496865 86.170609 22.582190
v -13.565054 85.695290 22.642050
v -7.296679 87.005318 24.375978
v -9.302626 86.559921 24.464415
v -11.327277 86.019836 24.520481
v -13.356994 85.429253 24.557402
v -7.219462 86.789345 26.345831
v -9.215810 86.396072 26.410915
v -11.216911 85.888016 26.453524
v -13.208219 85.233284 26.463608
v -7.176103 86.492035 28.337467
v -9.176143 86.265091 28.387583
v -11.158193 85.751427 28.401720
v -13.123463 85.116928 28.385641
v -7.171751 86.256500 30.377079
v -9.180179 86.090103 30.402382
v -11.158379 85.704117 30.391449
v -13.104016 85.132652 30.348436
v -7.210817 86.171005 32.485264
v -9.216550 86.004150 32.483772
v -11.201077 85.769737 32.444866
v -13.130110 85.259918 32.368061
v -7.301186 86.418457 34.668743
v -9.300472 86.226585 34.634655
v -11.276834 86.019478 34.567036
v -13.196705 85.587303 34.450443
v -7.675898 88.264412 39.159801
v -9.651610 87.865524 39.058254
v -11.588451 87.425110 38.924282
v -13.476800 86.902122 38.749149
v -7.951168 89.534195 41.457020
v -9.916686 88.985382 41.312145
v -11.835765 88.383736 41.135925
v -13.710010 87.734154 40.918945
v -8.265615 90.873260 43.754105
v -10.232357 90.180000 43.565983
v -12.135087 89.406189 43.343925
v -14.007010 88.645233 43.072758
vn 0.3413 0.9382 0.0566
vn 0.2531 0.9638 0.0841
vn 0.2308 0.9719 0.0453
vn 0.3133 0.9494 0.0212
vn 0.0910 0.9873 0.1300
vn 0.0916 0.9922 0.0845
vn 0.0360 0.9892 0.1421
vn 0.0202 0.9936 0.1111
vn 0.0054 0.9895 0.1445
vn -0.0031 0.9912 0.1323
vn -0.0264 0.9906 0.1343
vn -0.0186 0.9891 0.1460
vn 0.1813 0.9830 -0.0302
vn 0.2520 0.9661 -0.0569
vn 0.0547 0.9983 0.0206
vn -0.0146 0.9979 0.0636
vn -0.0327 0.9942 0.1020
vn -0.0358 0.9906 0.1318
vn 0.1208 0.9923 -0.0268
vn 0.1715 0.9814 -0.0859
vn 0.0162 0.9995 0.0281
vn -0.0476 0.9971 0.0601
vn -0.0644 0.9943 0.0851
vn -0.0587 0.9926 0.1062
vn 0.1610 0.9784 -0.1299
vn 0.1070 0.9941 -0.0163
vn 0.1195 0.9911 -0.0583
vn 0.0631 0.9968 0.0492
vn -0.0028 0.9970 0.0775
vn -0.0530 0.9958 0.0748
vn -0.0732 0.9952 0.0645
vn -0.0707 0.9956 0.0609
vn 0.0470 0.9979 0.0445
vn 0.0505 0.9984 0.0272
vn 0.0342 0.9973 0.0646
vn 0.0072 0.9985 0.0550
vn -0.0262 0.9994 0.0217
vn -0.0528 0.9985 -0.0161
vn -0.0662 0.9970 -0.0407
vn 0.0199 0.9970 -0.0742
vn 0.0061 0.9969 -0.0778
vn 0.0400 0.9962 -0.0768
vn 0.0404 0.9937 -0.1046
vn 0.0195 0.9890 -0.1468
vn -0.0138 0.9817 -0.1898
vn -0.0481 0.9745 -0.2193
vn 0.0597 0.9877 0.1444
vn 0.0390 0.9887 0.1446
vn 0.0039 0.9901 0.1402
vn -0.0380 0.9922 0.1190
vn -0.1077 0.9897 0.0945
vn -0.0915 0.9894 0.1129
vn -0.0610 0.9886 0.1379
vn -0.0446 0.9889 0.1420
vn -0.0500 0.9914 0.1209
vn -0.0633 0.9958 0.0663
vn -0.0729 0.9963 -0.0461
vn -0.0759 0.9707 -0.2280
vn -0.0789 0.9138 -0.3984
vn -0.0305 0.9161 -0.3998
vn 0.0206 0.9222 -0.3862
vn 0.0569 0.9290 -0.3658
vn 0.0700 0.9352 -0.3473
vn 0.0529 0.9398 -0.3376
vn 0.0037 0.9394 -0.3427
vn -0.0287 0.9368 -0.3488
vn -0.0017 0.8449 -0.5349
vn 0.0418 0.8369 -0.5457
vn 0.0017 0.7577 -0.6526
vn -0.0220 0.7446 -0.6672
vn 0.0676 0.8457 -0.5293
vn 0.0333 0.7808 -0.6239
vn 0.0617 0.8528 -0.5186
vn 0.0345 0.8004 -0.5984
vn 0.0275 0.8582 -0.5127
vn 0.0013 0.8183 -0.5748
vn -0.0330 0.8620 -0.5058
vn -0.0606 0.8322 -0.5512
vn -0.0248 0.7253 -0.6879
vn -0.0476 0.7089 -0.7038
vn 0.0102 0.7544 -0.6563
vn 0.0146 0.7790 -0.6268
vn -0.0190 0.8029 -0.5959
vn -0.0786 0.8218 -0.5643
vn -0.0437 0.8679 -0.4948
vn -0.0955 0.8660 -0.4909
vn -0.1257 0.8400 -0.5278
vn -0.1413 0.8311 -0.5378
vn -0.1569 0.9825 0.1000
vn -0.2304 0.9676 0.1035
vn -0.2271 0.9688 0.0990
vn -0.1465 0.9827 0.1134
vn -0.2545 0.9598 0.1181
vn -0.2632 0.9589 0.1056
vn -0.2468 0.9606 0.1281
vn -0.2696 0.9561 0.1149
vn -0.2112 0.9730 0.0928
vn -0.1147 0.9857 0.1237
vn -0.2745 0.9580 0.0831
vn -0.3011 0.9496 0.0874
vn -0.1780 0.9804 0.0842
vn -0.0860 0.9895 0.1159
vn -0.2680 0.9620 0.0521
vn -0.3022 0.9523 0.0418
vn -0.1387 0.9891 0.0489
vn -0.0755 0.9947 0.0703
vn -0.2347 0.9721 0.0036
vn -0.2813 0.9594 -0.0200
vn -0.1083 0.9930 -0.0463
vn -0.0806 0.9959 -0.0402
vn -0.1899 0.9789 -0.0760
vn -0.2487 0.9640 -0.0939
vn -0.1023 0.9734 -0.2051
vn -0.0910 0.9714 -0.2195
vn -0.1600 0.9662 -0.2021
vn -0.2114 0.9563 -0.2018
vn -0.1488 0.9850 0.0868
vn -0.1953 0.9325 -0.3038
vn -0.1631 0.9335 -0.3195
vn -0.1243 0.9282 -0.3507
vn -0.1082 0.9182 -0.3810
vn -0.1391 0.8741 -0.4654
vn -0.1663 0.8878 -0.4292
vn -0.2159 0.8580 -0.4661
vn -0.1780 0.8468 -0.5012
vn -0.1974 0.9004 -0.3878
vn -0.2422 0.8718 -0.4259
vn -0.2169 0.9054 -0.3651
vn -0.2528 0.8790 -0.4043
vn -0.2390 0.8442 -0.4798
vn -0.1956 0.8360 -0.5126
vn -0.2642 0.8575 -0.4414
vn -0.2711 0.8657 -0.4208
vt 0.650800 0.028886
vt 0.635145 0.515179
vt 0.642967 0.085973
vt 0.637433 0.142882
vt 0.633228 0.200393
vt 0.630692 0.258802
vt 0.629647 0.318614
vt 0.630129 0.380462
vt 0.631992 0.445323
vt 0.639955 0.590366
vt 0.646315 0.668844
vt 0.653556 0.747414
vt 0.563998 0.022326
vt 0.476287 0.015438
vt 0.387359 0.008367
vt 0.296781 0.001886
vt 0.546447 0.515816
vt 0.456957 0.515221
vt 0.366571 0.513640
vt 0.275588 0.511539
vt 0.184680 0.509623
vt 0.093627 0.508017
vt 0.001886 0.506953
vt 0.738526 0.034777
vt 0.978265 0.502207
vt 0.895125 0.507693
vt 0.809980 0.511193
vt 0.723126 0.513604
vt 0.108987 0.050428
vt 0.200581 0.055616
vt 0.291007 0.061231
vt 0.381159 0.067222
vt 0.469792 0.073681
vt 0.556815 0.080075
vt 0.103539 0.110213
vt 0.194497 0.115227
vt 0.285217 0.120472
vt 0.375467 0.126099
vt 0.464154 0.131973
vt 0.551120 0.137757
vt 0.099216 0.170191
vt 0.189428 0.175010
vt 0.280010 0.179997
vt 0.370306 0.185276
vt 0.459311 0.190686
vt 0.546711 0.195851
vt 0.007015 0.226686
vt 0.095729 0.231554
vt 0.185274 0.236014
vt 0.275683 0.240609
vt 0.366085 0.245498
vt 0.455468 0.250360
vt 0.543527 0.254904
vt 0.004020 0.291287
vt 0.092744 0.294990
vt 0.182535 0.298941
vt 0.273188 0.303152
vt 0.363695 0.307552
vt 0.453318 0.311763
vt 0.541874 0.315503
vt 0.002623 0.358791
vt 0.091803 0.361788
vt 0.181967 0.365134
vt 0.272766 0.368709
vt 0.363368 0.372348
vt 0.453093 0.375653
vt 0.541937 0.378372
vt 0.002204 0.430584
vt 0.092493 0.432746
vt 0.183008 0.435130
vt 0.273771 0.437821
vt 0.364483 0.440593
vt 0.454402 0.442914
vt 0.543508 0.444505
vt 0.002109 0.589850
vt 0.094716 0.589577
vt 0.186701 0.590361
vt 0.278297 0.591862
vt 0.369791 0.593168
vt 0.460909 0.593743
vt 0.550954 0.592929
vt 0.096421 0.675667
vt 0.188790 0.675752
vt 0.281097 0.676658
vt 0.373509 0.677151
vt 0.465649 0.676564
vt 0.556724 0.673950
vt 0.096731 0.764346
vt 0.189539 0.763051
vt 0.282434 0.762227
vt 0.376065 0.761604
vt 0.469804 0.759509
vt 0.562567 0.754656
vt 0.729622 0.091431
vt 0.817765 0.095801
vt 0.907800 0.099731
vt 0.998114 0.102668
vt 0.723256 0.147577
vt 0.810863 0.151713
vt 0.900229 0.154964
vt 0.990291 0.157646
vt 0.719505 0.204072
vt 0.806629 0.207430
vt 0.894959 0.210128
vt 0.984390 0.212064
vt 0.717582 0.261787
vt 0.804226 0.264152
vt 0.892139 0.265881
vt 0.980417 0.266696
vt 0.717032 0.320931
vt 0.804201 0.322310
vt 0.891145 0.322885
vt 0.977955 0.322348
vt 0.717903 0.381873
vt 0.805132 0.382433
vt 0.891559 0.381917
vt 0.976995 0.379713
vt 0.719937 0.445460
vt 0.806981 0.444891
vt 0.892841 0.443391
vt 0.976931 0.439426
vt 0.727887 0.586314
vt 0.814450 0.581109
vt 0.899240 0.574778
vt 0.982006 0.566683
vt 0.734468 0.661814
vt 0.821007 0.653259
vt 0.905812 0.643515
vt 0.988789 0.632417
vt 0.742466 0.737670
vt 0.829408 0.725908
vt 0.914520 0.712596
vt 0.998113 0.698579
s 1
f 29/29/1 30/30/2 36/36/3 35/35/4
f 30/30/2 31/31/5 37/37/6 36/36/3
f 31/31/5 32/32/7 38/38/8 37/37/6
f 32/32/7 33/33/9 39/39/10 38/38/8
f 33/33/9 34/34/11 40/40/12 39/39/10
f 35/35/4 36/36/3 42/42/13 41/41/14
f 36/36/3 37/37/6 43/43/15 42/42/13
f 37/37/6 38/38/8 44/44/16 43/43/15
f 38/38/8 39/39/10 45/45/17 44/44/16
f 39/39/10 40/40/12 46/46/18 45/45/17
f 41/41/14 42/42/13 49/49/19 48/48/20
f 42/42/13 43/43/15 50/50/21 49/49/19
f 43/43/15 44/44/16 51/51/22 50/50/21
f 44/44/16 45/45/17 52/52/23 51/51/22
f 45/45/17 46/46/18 53/53/24 52/52/23
f 47/47/25 48/48/20 55/55/26 54/54/27
f 48/48/20 49/49/19 56/56/28 55/55/26
f 49/49/19 50/50/21 57/57/29 56/56/28
f 50/50/21 51/51/22 58/58/30 57/57/29
f 51/51/22 52/52/23 59/59/31 58/58/30
f 52/52/23 53/53/24 60/60/32 59/59/31
f 54/54/27 55/55/26 62/62/33 61/61/34
f 55/55/26 56/56/28 63/63/35 62/62/33
f 56/56/28 57/57/29 64/64/36 63/63/35
f 57/57/29 58/58/30 65/65/37 64/64/36
f 58/58/30 59/59/31 66/66/38 65/65/37
f 59/59/31 60/60/32 67/67/39 66/66/38
f 61/61/34 62/62/33 69/69/40 68/68/41
f 62/62/33 63/63/35 70/70/42 69/69/40
f 63/63/35 64/64/36 71/71/43 70/70/42
f 64/64/36 65/65/37 72/72/44 71/71/43
f 65/65/37 66/66/38 73/73/45 72/72/44
f 66/66/38 67/67/39 74/74/46 73/73/45
f 16/16/47 15/15/48 32/32/7 31/31/5
f 15/15/48 14/14/49 33/33/9 32/32/7
f 14/14/49 13/13/50 34/34/11 33/33/9
f 13/13/50 1/1/51 3/3/52 34/34/11
f 34/34/11 3/3/52 4/4/53 40/40/12
f 40/40/12 4/4/53 5/5/54 46/46/18
f 46/46/18 5/5/54 6/6/55 53/53/24
f 53/53/24 6/6/55 7/7/56 60/60/32
f 60/60/32 7/7/56 8/8/57 67/67/39
f 67/67/39 8/8/57 9/9/58 74/74/46
f 74/74/46 9/9/58 2/2/59 17/17/60
f 73/73/45 74/74/46 17/17/60 18/18/61
f 72/72/44 73/73/45 18/18/61 19/19/62
f 71/71/43 72/72/44 19/19/62 20/20/63
f 70/70/42 71/71/43 20/20/63 21/21/64
f 69/69/40 70/70/42 21/21/64 22/22/65
f 68/68/41 69/69/40 22/22/65 23/23/66
f 76/76/67 77/77/68 83/83/69 82/82/70
f 77/77/68 78/78/71 84/84/72 83/83/69
f 78/78/71 79/79/73 85/85/74 84/84/72
f 79/79/73 80/80/75 86/86/76 85/85/74
f 80/80/75 81/81/77 87/87/78 86/86/76
f 82/82/70 83/83/69 89/89/79 88/88/80
f 83/83/69 84/84/72 90/90/81 89/89/79
f 84/84/72 85/85/74 91/91/82 90/90/81
f 85/85/74 86/86/76 92/92/83 91/91/82
f 86/86/76 87/87/78 93/93/84 92/92/83
f 23/23/66 22/22/65 76/76/67 75/75/85
f 22/22/65 21/21/64 77/77/68 76/76/67
f 21/21/64 20/20/63 78/78/71 77/77/68
f 20/20/63 19/19/62 79/79/73 78/78/71
f 19/19/62 18/18/61 80/80/75 79/79/73
f 18/18/61 17/17/60 81/81/77 80/80/75
f 17/17/60 2/2/59 10/10/86 81/81/77
f 81/81/77 10/10/86 11/11/87 87/87/78
f 87/87/78 11/11/87 12/12/88 93/93/84
f 94/94/89 95/95/90 99/99/91 98/98/92
f 95/95/90 96/96/93 100/100/94 99/99/91
f 96/96/93 97/97/95 101/101/96 100/100/94
f 98/98/92 99/99/91 103/103/97 102/102/98
f 99/99/91 100/100/94 104/104/99 103/103/97
f 100/100/94 101/101/96 105/105/100 104/104/99
f 102/102/98 103/103/97 107/107/101 106/106/102
f 103/103/97 104/104/99 108/108/103 107/107/101
f 104/104/99 105/105/100 109/109/104 108/108/103
f 106/106/102 107/107/101 111/111/105 110/110/106
f 107/107/101 108/108/103 112/112/107 111/111/105
f 108/108/103 109/109/104 113/113/108 112/112/107
f 110/110/106 111/111/105 115/115/109 114/114/110
f 111/111/105 112/112/107 116/116/111 115/115/109
f 112/112/107 113/113/108 117/117/112 116/116/111
f 114/114/110 115/115/109 119/119/113 118/118/114
f 115/115/109 116/116/111 120/120/115 119/119/113
f 116/116/111 117/117/112 121/121/116 120/120/115
f 1/1/51 24/24/117 94/94/89 3/3/52
f 120/120/115 121/121/116 25/25/118 26/26/119
f 119/119/113 120/120/115 26/26/119 27/27/120
f 118/118/114 119/119/113 27/27/120 28/28/121
f 9/9/58 118/118/114 28/28/121 2/2/59
f 8/8/57 114/114/110 118/118/114 9/9/58
f 7/7/56 110/110/106 114/114/110 8/8/57
f 6/6/55 106/106/102 110/110/106 7/7/56
f 5/5/54 102/102/98 106/106/102 6/6/55
f 4/4/53 98/98/92 102/102/98 5/5/54
f 3/3/52 94/94/89 98/98/92 4/4/53
f 122/122/122 123/123/123 127/127/124 126/126/125
f 123/123/123 124/124/126 128/128/127 127/127/124
f 124/124/126 125/125/128 129/129/129 128/128/127
f 126/126/125 127/127/124 131/131/130 130/130/131
f 127/127/124 128/128/127 132/132/132 131/131/130
f 128/128/127 129/129/129 133/133/133 132/132/132
f 2/2/59 28/28/121 122/122/122 10/10/86
f 28/28/121 27/27/120 123/123/123 122/122/122
f 27/27/120 26/26/119 124/124/126 123/123/123
f 26/26/119 25/25/118 125/125/128 124/124/126
f 11/11/87 126/126/125 130/130/131 12/12/88
f 10/10/86 122/122/122 126/126/125 11/11/87
